STARTFONT 2.1
FONT -URW-ITC Bookman-Light-I-Normal--10-100-72-72-P-56-ISO8859-1
SIZE 10 72 72
FONTBOUNDINGBOX 17 12 -4 -2

STARTPROPERTIES 22
FONTNAME_REGISTRY "-"
FOUNDRY "URW"
FAMILY_NAME "ITC Bookman"
WEIGHT_NAME "Light"
SLANT "I"
SETWIDTH_NAME "Normal"
ADD_STYLE_NAME ""
PIXEL_SIZE 10
POINT_SIZE 100
RESOLUTION_X 72
RESOLUTION_Y 72
SPACING "P"
CHARSET_REGISTRY "ISO8859"
CHARSET_ENCODING "1"
FULL_NAME "Bookman-LightItalic"
AVERAGE_WIDTH 56
WEIGHT 10
X_HEIGHT 6
QUAD_WIDTH 7
DEFAULT_CHAR 32
FONT_DESCENT 1
FONT_ASCENT 9
ENDPROPERTIES

CHARS 190

STARTCHAR space
ENCODING 32
SWIDTH 300 0
DWIDTH 3 0
BBX 1 1 0 0
BITMAP
00
ENDCHAR

STARTCHAR exclam
ENCODING 33
SWIDTH 320 0
DWIDTH 3 0
BBX 2 8 1 0
BITMAP
40
40
40
40
40
40
00
80
ENDCHAR

STARTCHAR quotedbl
ENCODING 34
SWIDTH 360 0
DWIDTH 4 0
BBX 3 2 1 6
BITMAP
A0
E0
ENDCHAR

STARTCHAR numbersign
ENCODING 35
SWIDTH 620 0
DWIDTH 6 0
BBX 5 8 1 0
BITMAP
30
30
F8
50
F8
50
50
50
ENDCHAR

STARTCHAR dollar
ENCODING 36
SWIDTH 620 0
DWIDTH 6 0
BBX 5 10 1 -1
BITMAP
10
78
58
58
78
28
A8
A8
70
40
ENDCHAR

STARTCHAR percent
ENCODING 37
SWIDTH 800 0
DWIDTH 8 0
BBX 8 8 1 0
BITMAP
64
98
98
BE
F9
19
2A
6E
ENDCHAR

STARTCHAR ampersand
ENCODING 38
SWIDTH 820 0
DWIDTH 8 0
BBX 8 8 1 0
BITMAP
38
28
38
76
94
8C
8D
76
ENDCHAR

STARTCHAR quoteright
ENCODING 39
SWIDTH 280 0
DWIDTH 3 0
BBX 1 2 1 6
BITMAP
80
80
ENDCHAR

STARTCHAR parenleft
ENCODING 40
SWIDTH 280 0
DWIDTH 3 0
BBX 3 9 1 -1
BITMAP
20
40
40
80
80
80
80
80
80
ENDCHAR

STARTCHAR parenright
ENCODING 41
SWIDTH 280 0
DWIDTH 3 0
BBX 3 9 0 -1
BITMAP
20
20
20
20
20
20
40
40
80
ENDCHAR

STARTCHAR asterisk
ENCODING 42
SWIDTH 440 0
DWIDTH 4 0
BBX 4 3 1 5
BITMAP
A0
B0
E0
ENDCHAR

STARTCHAR plus
ENCODING 43
SWIDTH 600 0
DWIDTH 6 0
BBX 5 5 1 1
BITMAP
20
20
F8
20
20
ENDCHAR

STARTCHAR comma
ENCODING 44
SWIDTH 300 0
DWIDTH 3 0
BBX 1 2 1 -1
BITMAP
80
80
ENDCHAR

STARTCHAR minus
ENCODING 45
SWIDTH 600 0
DWIDTH 6 0
BBX 5 1 1 3
BITMAP
F8
ENDCHAR

STARTCHAR period
ENCODING 46
SWIDTH 300 0
DWIDTH 3 0
BBX 1 1 1 0
BITMAP
80
ENDCHAR

STARTCHAR slash
ENCODING 47
SWIDTH 600 0
DWIDTH 6 0
BBX 5 9 1 -1
BITMAP
18
10
10
20
20
40
40
C0
80
ENDCHAR

STARTCHAR zero
ENCODING 48
SWIDTH 620 0
DWIDTH 6 0
BBX 6 8 1 0
BITMAP
38
48
C4
84
88
88
98
70
ENDCHAR

STARTCHAR one
ENCODING 49
SWIDTH 620 0
DWIDTH 6 0
BBX 3 8 2 0
BITMAP
60
20
20
20
20
20
40
E0
ENDCHAR

STARTCHAR two
ENCODING 50
SWIDTH 620 0
DWIDTH 6 0
BBX 6 8 1 0
BITMAP
38
4C
44
08
18
30
4C
F8
ENDCHAR

STARTCHAR three
ENCODING 51
SWIDTH 620 0
DWIDTH 6 0
BBX 6 8 1 0
BITMAP
38
44
48
38
08
88
88
70
ENDCHAR

STARTCHAR four
ENCODING 52
SWIDTH 620 0
DWIDTH 6 0
BBX 6 8 1 0
BITMAP
18
18
28
48
D0
FC
10
38
ENDCHAR

STARTCHAR five
ENCODING 53
SWIDTH 620 0
DWIDTH 6 0
BBX 5 8 1 0
BITMAP
78
40
78
C8
08
88
98
70
ENDCHAR

STARTCHAR six
ENCODING 54
SWIDTH 620 0
DWIDTH 6 0
BBX 6 8 1 0
BITMAP
38
44
40
B8
C8
88
88
70
ENDCHAR

STARTCHAR seven
ENCODING 55
SWIDTH 620 0
DWIDTH 6 0
BBX 5 8 1 0
BITMAP
F8
88
10
20
20
40
40
C0
ENDCHAR

STARTCHAR eight
ENCODING 56
SWIDTH 620 0
DWIDTH 6 0
BBX 6 8 1 0
BITMAP
38
44
44
78
C8
84
88
70
ENDCHAR

STARTCHAR nine
ENCODING 57
SWIDTH 620 0
DWIDTH 6 0
BBX 6 8 1 0
BITMAP
38
44
84
CC
78
08
98
F0
ENDCHAR

STARTCHAR colon
ENCODING 58
SWIDTH 300 0
DWIDTH 3 0
BBX 2 6 1 0
BITMAP
40
00
00
00
00
80
ENDCHAR

STARTCHAR semicolon
ENCODING 59
SWIDTH 300 0
DWIDTH 3 0
BBX 2 7 1 -1
BITMAP
40
00
00
00
00
80
80
ENDCHAR

STARTCHAR less
ENCODING 60
SWIDTH 600 0
DWIDTH 6 0
BBX 5 5 1 0
BITMAP
18
70
80
70
18
ENDCHAR

STARTCHAR equal
ENCODING 61
SWIDTH 600 0
DWIDTH 6 0
BBX 5 3 1 3
BITMAP
F8
00
F8
ENDCHAR

STARTCHAR greater
ENCODING 62
SWIDTH 600 0
DWIDTH 6 0
BBX 5 5 1 0
BITMAP
C0
70
08
70
C0
ENDCHAR

STARTCHAR question
ENCODING 63
SWIDTH 540 0
DWIDTH 5 0
BBX 5 8 1 0
BITMAP
70
88
88
30
40
40
00
40
ENDCHAR

STARTCHAR at
ENCODING 64
SWIDTH 780 0
DWIDTH 8 0
BBX 7 8 1 0
BITMAP
38
74
AA
CA
CA
BE
44
38
ENDCHAR

STARTCHAR A
ENCODING 65
SWIDTH 700 0
DWIDTH 7 0
BBX 7 8 0 0
BITMAP
0C
1C
14
34
3C
44
42
E6
ENDCHAR

STARTCHAR B
ENCODING 66
SWIDTH 720 0
DWIDTH 7 0
BBX 7 8 0 0
BITMAP
7E
22
22
3C
46
42
46
FC
ENDCHAR

STARTCHAR C
ENCODING 67
SWIDTH 720 0
DWIDTH 7 0
BBX 7 8 1 0
BITMAP
3C
64
C2
80
80
82
C4
78
ENDCHAR

STARTCHAR D
ENCODING 68
SWIDTH 740 0
DWIDTH 7 0
BBX 8 8 0 0
BITMAP
7C
22
23
21
42
42
46
F8
ENDCHAR

STARTCHAR E
ENCODING 69
SWIDTH 680 0
DWIDTH 7 0
BBX 7 8 0 0
BITMAP
7E
22
2A
38
48
42
44
FC
ENDCHAR

STARTCHAR F
ENCODING 70
SWIDTH 620 0
DWIDTH 6 0
BBX 7 8 0 0
BITMAP
7E
22
2A
38
48
40
40
E0
ENDCHAR

STARTCHAR G
ENCODING 71
SWIDTH 760 0
DWIDTH 8 0
BBX 7 8 1 0
BITMAP
3C
64
C4
80
8E
84
C4
7C
ENDCHAR

STARTCHAR H
ENCODING 72
SWIDTH 800 0
DWIDTH 8 0
BBX 9 8 0 0
BITMAP
7380
2100
2200
3E00
4200
4200
4200
E600
ENDCHAR

STARTCHAR I
ENCODING 73
SWIDTH 320 0
DWIDTH 3 0
BBX 4 8 0 0
BITMAP
70
20
20
20
40
40
40
E0
ENDCHAR

STARTCHAR J
ENCODING 74
SWIDTH 560 0
DWIDTH 6 0
BBX 7 8 0 0
BITMAP
0E
04
08
08
08
88
98
70
ENDCHAR

STARTCHAR K
ENCODING 75
SWIDTH 720 0
DWIDTH 7 0
BBX 8 8 0 0
BITMAP
77
24
28
38
68
44
44
EE
ENDCHAR

STARTCHAR L
ENCODING 76
SWIDTH 580 0
DWIDTH 6 0
BBX 6 8 0 0
BITMAP
70
20
20
20
40
44
44
FC
ENDCHAR

STARTCHAR M
ENCODING 77
SWIDTH 860 0
DWIDTH 9 0
BBX 9 8 0 0
BITMAP
7180
5300
5300
5500
5500
5900
5B00
D700
ENDCHAR

STARTCHAR N
ENCODING 78
SWIDTH 720 0
DWIDTH 7 0
BBX 8 8 0 0
BITMAP
63
52
52
4A
4A
4A
44
C4
ENDCHAR

STARTCHAR O
ENCODING 79
SWIDTH 760 0
DWIDTH 8 0
BBX 7 8 1 0
BITMAP
3C
66
42
82
82
86
CC
78
ENDCHAR

STARTCHAR P
ENCODING 80
SWIDTH 600 0
DWIDTH 6 0
BBX 7 8 0 0
BITMAP
7C
22
24
3C
40
40
40
E0
ENDCHAR

STARTCHAR Q
ENCODING 81
SWIDTH 780 0
DWIDTH 8 0
BBX 8 10 1 -2
BITMAP
1C
62
42
C3
82
82
5C
BC
84
78
ENDCHAR

STARTCHAR R
ENCODING 82
SWIDTH 700 0
DWIDTH 7 0
BBX 7 8 0 0
BITMAP
7E
22
22
3C
48
4C
44
E6
ENDCHAR

STARTCHAR S
ENCODING 83
SWIDTH 640 0
DWIDTH 6 0
BBX 6 8 1 0
BITMAP
3C
44
44
70
0C
84
8C
F8
ENDCHAR

STARTCHAR T
ENCODING 84
SWIDTH 600 0
DWIDTH 6 0
BBX 7 8 1 0
BITMAP
7E
92
92
10
20
20
20
70
ENDCHAR

STARTCHAR U
ENCODING 85
SWIDTH 720 0
DWIDTH 7 0
BBX 7 8 1 0
BITMAP
E6
44
44
84
84
84
88
70
ENDCHAR

STARTCHAR V
ENCODING 86
SWIDTH 680 0
DWIDTH 7 0
BBX 7 8 1 0
BITMAP
E6
46
44
44
48
28
30
30
ENDCHAR

STARTCHAR W
ENCODING 87
SWIDTH 960 0
DWIDTH 10 0
BBX 10 8 1 0
BITMAP
ECC0
48C0
4C80
4D80
5500
5500
2600
2600
ENDCHAR

STARTCHAR X
ENCODING 88
SWIDTH 700 0
DWIDTH 7 0
BBX 8 8 0 0
BITMAP
73
32
14
0C
18
24
44
EF
ENDCHAR

STARTCHAR Y
ENCODING 89
SWIDTH 660 0
DWIDTH 7 0
BBX 7 8 1 0
BITMAP
E6
44
4C
38
30
20
20
70
ENDCHAR

STARTCHAR Z
ENCODING 90
SWIDTH 580 0
DWIDTH 6 0
BBX 7 8 0 0
BITMAP
3E
64
48
18
30
24
44
FC
ENDCHAR

STARTCHAR bracketleft
ENCODING 91
SWIDTH 260 0
DWIDTH 3 0
BBX 3 9 1 -1
BITMAP
60
40
40
40
40
40
80
80
80
ENDCHAR

STARTCHAR backslash
ENCODING 92
SWIDTH 600 0
DWIDTH 6 0
BBX 5 9 1 -1
BITMAP
80
C0
40
40
20
20
10
10
18
ENDCHAR

STARTCHAR bracketright
ENCODING 93
SWIDTH 260 0
DWIDTH 3 0
BBX 3 9 0 -1
BITMAP
60
20
20
40
40
40
40
40
C0
ENDCHAR

STARTCHAR asciicircum
ENCODING 94
SWIDTH 600 0
DWIDTH 6 0
BBX 5 4 1 4
BITMAP
20
50
50
88
ENDCHAR

STARTCHAR underscore
ENCODING 95
SWIDTH 500 0
DWIDTH 5 0
BBX 5 1 0 -1
BITMAP
F8
ENDCHAR

STARTCHAR quoteleft
ENCODING 96
SWIDTH 280 0
DWIDTH 3 0
BBX 1 2 2 6
BITMAP
80
80
ENDCHAR

STARTCHAR a
ENCODING 97
SWIDTH 620 0
DWIDTH 6 0
BBX 6 6 1 0
BITMAP
38
48
88
98
98
6C
ENDCHAR

STARTCHAR b
ENCODING 98
SWIDTH 600 0
DWIDTH 6 0
BBX 5 9 1 0
BITMAP
C0
40
40
78
48
48
88
98
F0
ENDCHAR

STARTCHAR c
ENCODING 99
SWIDTH 480 0
DWIDTH 5 0
BBX 5 6 1 0
BITMAP
30
48
80
80
90
70
ENDCHAR

STARTCHAR d
ENCODING 100
SWIDTH 640 0
DWIDTH 6 0
BBX 6 9 1 0
BITMAP
0C
04
08
78
48
88
88
98
6C
ENDCHAR

STARTCHAR e
ENCODING 101
SWIDTH 540 0
DWIDTH 5 0
BBX 5 6 1 0
BITMAP
38
48
F0
80
98
70
ENDCHAR

STARTCHAR f
ENCODING 102
SWIDTH 340 0
DWIDTH 3 0
BBX 7 11 -1 -2
BITMAP
06
08
08
1C
08
10
10
10
10
10
E0
ENDCHAR

STARTCHAR g
ENCODING 103
SWIDTH 560 0
DWIDTH 6 0
BBX 6 8 0 -2
BITMAP
3C
44
48
48
48
78
18
F0
ENDCHAR

STARTCHAR h
ENCODING 104
SWIDTH 620 0
DWIDTH 6 0
BBX 6 9 1 0
BITMAP
C0
40
40
78
48
48
88
88
8C
ENDCHAR

STARTCHAR i
ENCODING 105
SWIDTH 280 0
DWIDTH 3 0
BBX 3 9 1 0
BITMAP
40
00
00
C0
40
80
80
80
E0
ENDCHAR

STARTCHAR j
ENCODING 106
SWIDTH 280 0
DWIDTH 3 0
BBX 5 11 -1 -2
BITMAP
08
00
00
18
08
10
10
10
10
10
E0
ENDCHAR

STARTCHAR k
ENCODING 107
SWIDTH 600 0
DWIDTH 6 0
BBX 6 9 1 0
BITMAP
C0
40
40
5C
60
60
D0
90
9C
ENDCHAR

STARTCHAR l
ENCODING 108
SWIDTH 280 0
DWIDTH 3 0
BBX 2 9 1 0
BITMAP
C0
40
40
80
80
80
80
80
C0
ENDCHAR

STARTCHAR m
ENCODING 109
SWIDTH 880 0
DWIDTH 9 0
BBX 9 6 1 0
BITMAP
FF00
4900
8900
9100
9200
9180
ENDCHAR

STARTCHAR n
ENCODING 110
SWIDTH 620 0
DWIDTH 6 0
BBX 6 6 1 0
BITMAP
F8
48
48
88
88
8C
ENDCHAR

STARTCHAR o
ENCODING 111
SWIDTH 540 0
DWIDTH 5 0
BBX 5 6 1 0
BITMAP
70
48
88
88
98
70
ENDCHAR

STARTCHAR p
ENCODING 112
SWIDTH 600 0
DWIDTH 6 0
BBX 6 8 0 -2
BITMAP
7C
34
24
24
44
78
40
E0
ENDCHAR

STARTCHAR q
ENCODING 113
SWIDTH 560 0
DWIDTH 6 0
BBX 5 8 1 -2
BITMAP
78
48
88
98
90
70
10
38
ENDCHAR

STARTCHAR r
ENCODING 114
SWIDTH 400 0
DWIDTH 4 0
BBX 4 6 1 0
BITMAP
F0
40
40
80
80
80
ENDCHAR

STARTCHAR s
ENCODING 115
SWIDTH 540 0
DWIDTH 5 0
BBX 5 6 1 0
BITMAP
70
48
60
10
98
70
ENDCHAR

STARTCHAR t
ENCODING 116
SWIDTH 340 0
DWIDTH 3 0
BBX 3 8 1 0
BITMAP
40
40
E0
40
80
80
80
E0
ENDCHAR

STARTCHAR u
ENCODING 117
SWIDTH 620 0
DWIDTH 6 0
BBX 6 6 1 0
BITMAP
C8
48
88
88
98
EC
ENDCHAR

STARTCHAR v
ENCODING 118
SWIDTH 540 0
DWIDTH 5 0
BBX 5 6 1 0
BITMAP
D8
48
88
88
90
E0
ENDCHAR

STARTCHAR w
ENCODING 119
SWIDTH 880 0
DWIDTH 9 0
BBX 8 6 1 0
BITMAP
C9
49
89
89
99
EE
ENDCHAR

STARTCHAR x
ENCODING 120
SWIDTH 540 0
DWIDTH 5 0
BBX 6 6 0 0
BITMAP
6C
38
30
30
70
CC
ENDCHAR

STARTCHAR y
ENCODING 121
SWIDTH 600 0
DWIDTH 6 0
BBX 5 8 1 -2
BITMAP
C8
48
48
48
D8
68
10
E0
ENDCHAR

STARTCHAR z
ENCODING 122
SWIDTH 520 0
DWIDTH 5 0
BBX 5 6 0 0
BITMAP
78
50
30
60
48
F8
ENDCHAR

STARTCHAR braceleft
ENCODING 123
SWIDTH 360 0
DWIDTH 4 0
BBX 3 9 1 -1
BITMAP
20
40
40
40
80
80
80
80
C0
ENDCHAR

STARTCHAR bar
ENCODING 124
SWIDTH 600 0
DWIDTH 6 0
BBX 1 8 3 0
BITMAP
80
80
80
80
80
80
80
80
ENDCHAR

STARTCHAR braceright
ENCODING 125
SWIDTH 380 0
DWIDTH 4 0
BBX 3 9 0 -1
BITMAP
20
20
20
20
20
20
40
40
80
ENDCHAR

STARTCHAR asciitilde
ENCODING 126
SWIDTH 600 0
DWIDTH 6 0
BBX 5 2 1 1
BITMAP
68
B8
ENDCHAR

STARTCHAR exclamdown
ENCODING 161
SWIDTH 320 0
DWIDTH 3 0
BBX 2 8 1 -2
BITMAP
40
00
40
80
80
80
80
80
ENDCHAR

STARTCHAR cent
ENCODING 162
SWIDTH 620 0
DWIDTH 6 0
BBX 4 8 1 0
BITMAP
10
70
F0
A0
A0
B0
F0
40
ENDCHAR

STARTCHAR sterling
ENCODING 163
SWIDTH 620 0
DWIDTH 6 0
BBX 7 8 0 0
BITMAP
1C
12
22
78
10
F4
B4
DC
ENDCHAR

STARTCHAR currency
ENCODING 164
SWIDTH 620 0
DWIDTH 6 0
BBX 5 6 1 1
BITMAP
F8
D0
88
88
D8
F8
ENDCHAR

STARTCHAR yen
ENCODING 165
SWIDTH 620 0
DWIDTH 6 0
BBX 7 8 1 0
BITMAP
EE
48
FC
30
F8
20
20
70
ENDCHAR

STARTCHAR brokenbar
ENCODING 166
SWIDTH 600 0
DWIDTH 6 0
BBX 1 8 3 0
BITMAP
80
80
80
00
80
80
80
80
ENDCHAR

STARTCHAR section
ENCODING 167
SWIDTH 620 0
DWIDTH 6 0
BBX 6 10 0 -2
BITMAP
38
64
44
70
4C
44
38
88
88
70
ENDCHAR

STARTCHAR dieresis
ENCODING 168
SWIDTH 420 0
DWIDTH 4 0
BBX 3 1 2 7
BITMAP
A0
ENDCHAR

STARTCHAR copyright
ENCODING 169
SWIDTH 740 0
DWIDTH 7 0
BBX 8 8 0 0
BITMAP
3C
5A
A5
A1
A5
9D
42
3C
ENDCHAR

STARTCHAR ordfeminine
ENCODING 170
SWIDTH 440 0
DWIDTH 4 0
BBX 4 4 1 4
BITMAP
70
90
70
F0
ENDCHAR

STARTCHAR guillemotleft
ENCODING 171
SWIDTH 300 0
DWIDTH 3 0
BBX 3 3 1 1
BITMAP
E0
C0
C0
ENDCHAR

STARTCHAR logicalnot
ENCODING 172
SWIDTH 600 0
DWIDTH 6 0
BBX 5 3 1 1
BITMAP
F8
08
08
ENDCHAR

STARTCHAR hyphen
ENCODING 173
SWIDTH 320 0
DWIDTH 3 0
BBX 2 1 1 2
BITMAP
C0
ENDCHAR

STARTCHAR registered
ENCODING 174
SWIDTH 740 0
DWIDTH 7 0
BBX 7 8 0 0
BITMAP
38
7C
AA
BA
BA
BA
44
38
ENDCHAR

STARTCHAR macron
ENCODING 175
SWIDTH 440 0
DWIDTH 4 0
BBX 3 1 2 6
BITMAP
E0
ENDCHAR

STARTCHAR degree
ENCODING 176
SWIDTH 400 0
DWIDTH 4 0
BBX 4 3 1 5
BITMAP
60
90
60
ENDCHAR

STARTCHAR plusminus
ENCODING 177
SWIDTH 600 0
DWIDTH 6 0
BBX 5 7 1 0
BITMAP
20
20
F8
20
20
20
F8
ENDCHAR

STARTCHAR twosuperior
ENCODING 178
SWIDTH 372 0
DWIDTH 4 0
BBX 3 4 -4 4
BITMAP
60
A0
60
E0
ENDCHAR

STARTCHAR threesuperior
ENCODING 179
SWIDTH 372 0
DWIDTH 4 0
BBX 3 4 -4 4
BITMAP
60
60
A0
E0
ENDCHAR

STARTCHAR acute
ENCODING 180
SWIDTH 320 0
DWIDTH 3 0
BBX 2 2 2 6
BITMAP
40
80
ENDCHAR

STARTCHAR mu
ENCODING 181
SWIDTH 620 0
DWIDTH 6 0
BBX 7 8 0 -2
BITMAP
44
48
48
48
58
7E
80
80
ENDCHAR

STARTCHAR paragraph
ENCODING 182
SWIDTH 620 0
DWIDTH 6 0
BBX 6 8 1 0
BITMAP
7C
E8
E8
E8
68
28
30
78
ENDCHAR

STARTCHAR periodcentered
ENCODING 183
SWIDTH 300 0
DWIDTH 5 0
BBX 1 1 2 3
BITMAP
80
ENDCHAR

STARTCHAR cedilla
ENCODING 184
SWIDTH 320 0
DWIDTH 3 0
BBX 2 2 0 -2
BITMAP
40
C0
ENDCHAR

STARTCHAR onesuperior
ENCODING 185
SWIDTH 372 0
DWIDTH 4 0
BBX 2 4 -4 4
BITMAP
40
40
40
C0
ENDCHAR

STARTCHAR ordmasculine
ENCODING 186
SWIDTH 400 0
DWIDTH 4 0
BBX 4 4 1 4
BITMAP
60
50
60
F0
ENDCHAR

STARTCHAR guillemotright
ENCODING 187
SWIDTH 300 0
DWIDTH 3 0
BBX 3 3 1 1
BITMAP
A0
E0
C0
ENDCHAR

STARTCHAR onequarter
ENCODING 188
SWIDTH 930 0
DWIDTH 8 0
BBX 7 8 -4 0
BITMAP
46
44
48
D8
12
26
2E
46
ENDCHAR

STARTCHAR onehalf
ENCODING 189
SWIDTH 930 0
DWIDTH 8 0
BBX 7 8 -4 0
BITMAP
46
44
48
D8
16
2A
26
4E
ENDCHAR

STARTCHAR threequarters
ENCODING 190
SWIDTH 930 0
DWIDTH 8 0
BBX 7 8 -4 0
BITMAP
66
64
A8
F8
12
26
2E
46
ENDCHAR

STARTCHAR questiondown
ENCODING 191
SWIDTH 540 0
DWIDTH 5 0
BBX 5 8 0 -2
BITMAP
10
00
10
20
40
88
88
70
ENDCHAR

STARTCHAR Agrave
ENCODING 192
SWIDTH 700 0
DWIDTH 7 0
BBX 7 10 0 0
BITMAP
08
04
0C
1C
14
34
3C
44
42
E6
ENDCHAR

STARTCHAR Aacute
ENCODING 193
SWIDTH 700 0
DWIDTH 7 0
BBX 7 10 0 0
BITMAP
04
08
0C
1C
14
34
3C
44
42
E6
ENDCHAR

STARTCHAR Acircumflex
ENCODING 194
SWIDTH 700 0
DWIDTH 7 0
BBX 7 9 0 0
BITMAP
1C
0C
1C
14
34
3C
44
42
E6
ENDCHAR

STARTCHAR Atilde
ENCODING 195
SWIDTH 700 0
DWIDTH 7 0
BBX 7 9 0 0
BITMAP
1C
0C
1C
14
34
3C
44
42
E6
ENDCHAR

STARTCHAR Adieresis
ENCODING 196
SWIDTH 700 0
DWIDTH 7 0
BBX 7 9 0 0
BITMAP
14
0C
1C
14
34
3C
44
42
E6
ENDCHAR

STARTCHAR Aring
ENCODING 197
SWIDTH 700 0
DWIDTH 7 0
BBX 7 10 0 0
BITMAP
0C
08
0C
1C
14
34
3C
44
42
E6
ENDCHAR

STARTCHAR AE
ENCODING 198
SWIDTH 1220 0
DWIDTH 12 0
BBX 13 8 0 0
BITMAP
01F8
0388
06A8
0FE0
1920
3108
6110
E3F0
ENDCHAR

STARTCHAR Ccedilla
ENCODING 199
SWIDTH 720 0
DWIDTH 7 0
BBX 7 10 1 -2
BITMAP
3C
64
C2
80
80
82
C4
78
10
30
ENDCHAR

STARTCHAR Egrave
ENCODING 200
SWIDTH 680 0
DWIDTH 7 0
BBX 7 10 0 0
BITMAP
10
08
7E
22
2A
38
48
42
44
FC
ENDCHAR

STARTCHAR Eacute
ENCODING 201
SWIDTH 680 0
DWIDTH 7 0
BBX 7 10 0 0
BITMAP
08
10
7E
22
2A
38
48
42
44
FC
ENDCHAR

STARTCHAR Ecircumflex
ENCODING 202
SWIDTH 680 0
DWIDTH 7 0
BBX 7 9 0 0
BITMAP
1C
7E
22
2A
38
48
42
44
FC
ENDCHAR

STARTCHAR Edieresis
ENCODING 203
SWIDTH 680 0
DWIDTH 7 0
BBX 7 9 0 0
BITMAP
14
7E
22
2A
38
48
42
44
FC
ENDCHAR

STARTCHAR Igrave
ENCODING 204
SWIDTH 320 0
DWIDTH 3 0
BBX 4 10 0 0
BITMAP
20
10
70
20
20
20
40
40
40
E0
ENDCHAR

STARTCHAR Iacute
ENCODING 205
SWIDTH 320 0
DWIDTH 3 0
BBX 4 10 0 0
BITMAP
10
20
70
20
20
20
40
40
40
E0
ENDCHAR

STARTCHAR Icircumflex
ENCODING 206
SWIDTH 320 0
DWIDTH 3 0
BBX 4 9 0 0
BITMAP
70
70
20
20
20
40
40
40
E0
ENDCHAR

STARTCHAR Idieresis
ENCODING 207
SWIDTH 320 0
DWIDTH 3 0
BBX 4 9 0 0
BITMAP
50
70
20
20
20
40
40
40
E0
ENDCHAR

STARTCHAR Eth
ENCODING 208
SWIDTH 740 0
DWIDTH 7 0
BBX 8 8 0 0
BITMAP
7C
22
23
79
42
42
46
F8
ENDCHAR

STARTCHAR Ntilde
ENCODING 209
SWIDTH 720 0
DWIDTH 7 0
BBX 8 9 0 0
BITMAP
1C
63
52
52
4A
4A
4A
44
C4
ENDCHAR

STARTCHAR Ograve
ENCODING 210
SWIDTH 760 0
DWIDTH 8 0
BBX 7 10 1 0
BITMAP
10
08
3C
66
42
82
82
86
CC
78
ENDCHAR

STARTCHAR Oacute
ENCODING 211
SWIDTH 760 0
DWIDTH 8 0
BBX 7 10 1 0
BITMAP
08
10
3C
66
42
82
82
86
CC
78
ENDCHAR

STARTCHAR Ocircumflex
ENCODING 212
SWIDTH 760 0
DWIDTH 8 0
BBX 7 9 1 0
BITMAP
38
3C
66
42
82
82
86
CC
78
ENDCHAR

STARTCHAR Otilde
ENCODING 213
SWIDTH 760 0
DWIDTH 8 0
BBX 7 9 1 0
BITMAP
1C
3C
66
42
82
82
86
CC
78
ENDCHAR

STARTCHAR Odieresis
ENCODING 214
SWIDTH 760 0
DWIDTH 8 0
BBX 7 9 1 0
BITMAP
14
3C
66
42
82
82
86
CC
78
ENDCHAR

STARTCHAR multiply
ENCODING 215
SWIDTH 600 0
DWIDTH 6 0
BBX 5 5 1 1
BITMAP
88
50
20
50
88
ENDCHAR

STARTCHAR Oslash
ENCODING 216
SWIDTH 760 0
DWIDTH 8 0
BBX 8 8 1 0
BITMAP
3F
66
46
8A
92
B6
EC
78
ENDCHAR

STARTCHAR Ugrave
ENCODING 217
SWIDTH 720 0
DWIDTH 7 0
BBX 7 10 1 0
BITMAP
10
08
E6
44
44
84
84
84
88
70
ENDCHAR

STARTCHAR Uacute
ENCODING 218
SWIDTH 720 0
DWIDTH 7 0
BBX 7 10 1 0
BITMAP
08
10
E6
44
44
84
84
84
88
70
ENDCHAR

STARTCHAR Ucircumflex
ENCODING 219
SWIDTH 720 0
DWIDTH 7 0
BBX 7 9 1 0
BITMAP
38
E6
44
44
84
84
84
88
70
ENDCHAR

STARTCHAR Udieresis
ENCODING 220
SWIDTH 720 0
DWIDTH 7 0
BBX 7 9 1 0
BITMAP
28
E6
44
44
84
84
84
88
70
ENDCHAR

STARTCHAR Yacute
ENCODING 221
SWIDTH 660 0
DWIDTH 7 0
BBX 7 10 1 0
BITMAP
08
10
E6
44
4C
38
30
20
20
70
ENDCHAR

STARTCHAR Thorn
ENCODING 222
SWIDTH 600 0
DWIDTH 6 0
BBX 6 8 0 0
BITMAP
70
20
3C
24
44
78
40
E0
ENDCHAR

STARTCHAR germandbls
ENCODING 223
SWIDTH 620 0
DWIDTH 6 0
BBX 8 10 0 -1
BITMAP
0E
09
12
14
12
11
11
12
3C
C0
ENDCHAR

STARTCHAR agrave
ENCODING 224
SWIDTH 620 0
DWIDTH 6 0
BBX 6 8 1 0
BITMAP
20
10
38
48
88
98
98
6C
ENDCHAR

STARTCHAR aacute
ENCODING 225
SWIDTH 620 0
DWIDTH 6 0
BBX 6 8 1 0
BITMAP
08
10
38
48
88
98
98
6C
ENDCHAR

STARTCHAR acircumflex
ENCODING 226
SWIDTH 620 0
DWIDTH 6 0
BBX 6 7 1 0
BITMAP
38
38
48
88
98
98
6C
ENDCHAR

STARTCHAR atilde
ENCODING 227
SWIDTH 620 0
DWIDTH 6 0
BBX 6 7 1 0
BITMAP
38
38
48
88
98
98
6C
ENDCHAR

STARTCHAR adieresis
ENCODING 228
SWIDTH 620 0
DWIDTH 6 0
BBX 6 7 1 0
BITMAP
28
38
48
88
98
98
6C
ENDCHAR

STARTCHAR aring
ENCODING 229
SWIDTH 620 0
DWIDTH 6 0
BBX 6 8 1 0
BITMAP
18
10
38
48
88
98
98
6C
ENDCHAR

STARTCHAR ae
ENCODING 230
SWIDTH 880 0
DWIDTH 9 0
BBX 8 6 1 0
BITMAP
77
49
7F
88
99
EE
ENDCHAR

STARTCHAR ccedilla
ENCODING 231
SWIDTH 480 0
DWIDTH 5 0
BBX 5 8 1 -2
BITMAP
30
48
80
80
90
70
20
60
ENDCHAR

STARTCHAR egrave
ENCODING 232
SWIDTH 540 0
DWIDTH 5 0
BBX 5 8 1 0
BITMAP
20
10
38
48
F0
80
98
70
ENDCHAR

STARTCHAR eacute
ENCODING 233
SWIDTH 540 0
DWIDTH 5 0
BBX 5 8 1 0
BITMAP
10
20
38
48
F0
80
98
70
ENDCHAR

STARTCHAR ecircumflex
ENCODING 234
SWIDTH 540 0
DWIDTH 5 0
BBX 5 7 1 0
BITMAP
38
38
48
F0
80
98
70
ENDCHAR

STARTCHAR edieresis
ENCODING 235
SWIDTH 540 0
DWIDTH 5 0
BBX 5 7 1 0
BITMAP
28
38
48
F0
80
98
70
ENDCHAR

STARTCHAR igrave
ENCODING 236
SWIDTH 280 0
DWIDTH 3 0
BBX 3 8 1 0
BITMAP
40
20
C0
40
80
80
80
E0
ENDCHAR

STARTCHAR iacute
ENCODING 237
SWIDTH 280 0
DWIDTH 3 0
BBX 3 8 1 0
BITMAP
20
40
C0
40
80
80
80
E0
ENDCHAR

STARTCHAR icircumflex
ENCODING 238
SWIDTH 280 0
DWIDTH 3 0
BBX 3 7 1 0
BITMAP
E0
C0
40
80
80
80
E0
ENDCHAR

STARTCHAR idieresis
ENCODING 239
SWIDTH 280 0
DWIDTH 3 0
BBX 3 7 1 0
BITMAP
A0
C0
40
80
80
80
E0
ENDCHAR

STARTCHAR eth
ENCODING 240
SWIDTH 540 0
DWIDTH 5 0
BBX 5 8 1 0
BITMAP
70
68
38
48
88
88
98
70
ENDCHAR

STARTCHAR ntilde
ENCODING 241
SWIDTH 620 0
DWIDTH 6 0
BBX 6 7 1 0
BITMAP
38
F8
48
48
88
88
8C
ENDCHAR

STARTCHAR ograve
ENCODING 242
SWIDTH 540 0
DWIDTH 5 0
BBX 5 8 1 0
BITMAP
20
10
70
48
88
88
98
70
ENDCHAR

STARTCHAR oacute
ENCODING 243
SWIDTH 540 0
DWIDTH 5 0
BBX 5 8 1 0
BITMAP
10
20
70
48
88
88
98
70
ENDCHAR

STARTCHAR ocircumflex
ENCODING 244
SWIDTH 540 0
DWIDTH 5 0
BBX 5 7 1 0
BITMAP
38
70
48
88
88
98
70
ENDCHAR

STARTCHAR otilde
ENCODING 245
SWIDTH 540 0
DWIDTH 5 0
BBX 5 7 1 0
BITMAP
38
70
48
88
88
98
70
ENDCHAR

STARTCHAR odieresis
ENCODING 246
SWIDTH 540 0
DWIDTH 5 0
BBX 5 7 1 0
BITMAP
28
70
48
88
88
98
70
ENDCHAR

STARTCHAR divide
ENCODING 247
SWIDTH 600 0
DWIDTH 6 0
BBX 5 5 1 1
BITMAP
20
00
F8
00
20
ENDCHAR

STARTCHAR oslash
ENCODING 248
SWIDTH 540 0
DWIDTH 5 0
BBX 5 6 1 0
BITMAP
78
58
A8
C8
98
70
ENDCHAR

STARTCHAR ugrave
ENCODING 249
SWIDTH 620 0
DWIDTH 6 0
BBX 6 8 1 0
BITMAP
20
10
C8
48
88
88
98
EC
ENDCHAR

STARTCHAR uacute
ENCODING 250
SWIDTH 620 0
DWIDTH 6 0
BBX 6 8 1 0
BITMAP
10
20
C8
48
88
88
98
EC
ENDCHAR

STARTCHAR ucircumflex
ENCODING 251
SWIDTH 620 0
DWIDTH 6 0
BBX 6 7 1 0
BITMAP
38
C8
48
88
88
98
EC
ENDCHAR

STARTCHAR udieresis
ENCODING 252
SWIDTH 620 0
DWIDTH 6 0
BBX 6 7 1 0
BITMAP
28
C8
48
88
88
98
EC
ENDCHAR

STARTCHAR yacute
ENCODING 253
SWIDTH 600 0
DWIDTH 6 0
BBX 5 10 1 -2
BITMAP
08
10
C8
48
48
48
D8
68
10
E0
ENDCHAR

STARTCHAR thorn
ENCODING 254
SWIDTH 600 0
DWIDTH 6 0
BBX 6 10 0 -2
BITMAP
20
20
3C
34
24
24
44
78
40
E0
ENDCHAR

STARTCHAR ydieresis
ENCODING 255
SWIDTH 600 0
DWIDTH 6 0
BBX 5 9 1 -2
BITMAP
28
C8
48
48
48
D8
68
10
E0
ENDCHAR
ENDFONT
